HIERARCHY
ROOT Hips
{
	OFFSET 0.00000 0.00000 0.00000
	CHANNELS 6 Xposition Yposition Zposition Zrotation Yrotation Xrotation 
	JOINT LHipJoint
	{
		OFFSET 0 0 0
		CHANNELS 3 Zrotation Yrotation Xrotation
		JOINT LeftHip
		{
			OFFSET 1.41496 -1.84582 0.78394
			CHANNELS 3 Zrotation Yrotation Xrotation
			JOINT LeftKnee
			{
				OFFSET 2.58040 -7.08960 0.00000
				CHANNELS 3 Zrotation Yrotation Xrotation
				JOINT LeftAnkle
				{
					OFFSET 2.64719 -7.27309 0.00000
					CHANNELS 3 Zrotation Yrotation Xrotation
					JOINT LeftToe
					{
						OFFSET 0.20718 -0.56921 2.20259
						CHANNELS 3 Zrotation Yrotation Xrotation
						End Site
						{
							OFFSET 0.00000 -0.00000 1.14243
						}
					}
				}
			}
		}
	}
	JOINT RHipJoint
	{
		OFFSET 0 0 0
		CHANNELS 3 Zrotation Yrotation Xrotation
		JOINT RightHip
		{
			OFFSET -1.40551 -1.84582 0.78394
			CHANNELS 3 Zrotation Yrotation Xrotation
			JOINT RightKnee
			{
				OFFSET -2.56572 -7.04926 0.00000
				CHANNELS 3 Zrotation Yrotation Xrotation
				JOINT RightAnkle
				{
					OFFSET -2.57974 -7.08778 0.00000
					CHANNELS 3 Zrotation Yrotation Xrotation
					JOINT RightToe
					{
						OFFSET -0.26704 -0.73369 2.20815
						CHANNELS 3 Zrotation Yrotation Xrotation
						End Site
						{
							OFFSET -0.00000 -0.00000 1.16246
						}
					}
				}
			}
		}
	}
	JOINT lowerback
	{
		OFFSET 0 0 0
		CHANNELS 3 Zrotation Yrotation Xrotation
		JOINT Chest
		{
			OFFSET -0.04690 2.05196 -0.07017
			CHANNELS 3 Zrotation Yrotation Xrotation
			JOINT Chest2
			{
				OFFSET 0.04085 2.05260 0.00800
				CHANNELS 3 Zrotation Yrotation Xrotation
				JOINT lowerneck
				{
					OFFSET 0 0 0
					CHANNELS 3 Zrotation Yrotation Xrotation
					JOINT Neck
					{
						OFFSET -0.03582 1.80995 0.19301
						CHANNELS 3 Zrotation Yrotation Xrotation
						JOINT Head
						{
							OFFSET 0.00952 1.80195 -0.36389
							CHANNELS 3 Zrotation Yrotation Xrotation
							End Site
							{
								OFFSET 0.00392 1.85062 -0.14494
							}
						}
					}
				}
				JOINT LeftCollar
				{
					OFFSET 0 0 0
					CHANNELS 3 Zrotation Yrotation Xrotation
					JOINT LeftShoulder
					{
						OFFSET 3.55224 1.39726 -0.13667
CHANNELS 3 Zrotation Xrotation Yrotation
						JOINT LeftElbow
						{
OFFSET 0 -5.145070 -0.000000
CHANNELS 3 Zrotation Xrotation Yrotation
							JOINT LeftWrist
							{
OFFSET 0 -3.506460 0.000000
CHANNELS 3 Zrotation Xrotation Yrotation
								JOINT lhand
								{
									OFFSET 0 0 0
CHANNELS 3 Zrotation Xrotation Yrotation
									JOINT LFingers
									{
OFFSET 0 -0.629970 0.000000
CHANNELS 3 Zrotation Xrotation Yrotation
										End Site
										{
OFFSET 0 -0.507900 0.000000
										}
									}
								}
								JOINT LThumb
								{
OFFSET 0 0.000000 0.000000
CHANNELS 3 Zrotation Xrotation Yrotation
									End Site
									{
OFFSET 0 -0.515650 0.515650
									}
								}
							}
						}
					}
				}
				JOINT RightCollar
				{
					OFFSET 0 0 0
					CHANNELS 3 Zrotation Yrotation Xrotation
					JOINT RightShoulder
					{
						OFFSET -3.06467 1.61290 -0.28813
CHANNELS 3 Zrotation Xrotation Yrotation
						JOINT RightElbow
						{
OFFSET 0 -5.232000 -0.000000
CHANNELS 3 Zrotation Xrotation Yrotation
							JOINT RightWrist
							{
OFFSET 0 -3.656410 0.000000
CHANNELS 3 Zrotation Xrotation Yrotation
								JOINT rhand
								{
									OFFSET 0 0 0
CHANNELS 3 Zrotation Xrotation Yrotation
									JOINT RFingers
									{
OFFSET 0 -0.656810 0.000000
CHANNELS 3 Zrotation Xrotation Yrotation
										End Site
										{
OFFSET 0 -0.529530 0.000000
										}
									}
								}
								JOINT RThumb
								{
OFFSET 0 0.000000 0.000000
CHANNELS 3 Zrotation Xrotation Yrotation
									End Site
									{
OFFSET 0 -0.537620 0.537620
									}
								}
							}
						}
					}
				}
			}
		}
	}
}
MOTION
Frames: 8
Frame Time: 0.008333333333333333
1.878400 15.765400 -46.277300 -1.574600 -7.188500 29.557100 0.000000 0.000000 0.000000 -8.161500 -14.803200 -78.162200 14.160700 19.162000 72.694600 1.235300 -10.929700 -20.165200 0.115100 -2.187400 -6.023700 0.000000 0.000000 0.000000 21.005400 -4.974300 10.214500 -0.405800 -4.089500 11.328700 0.533800 -12.818200 -4.961100 -3.168100 10.962400 -32.153100 1.832200 4.256600 17.993300 -1.733500 5.787700 1.016100 -4.342200 2.653700 -8.592500 -4.144800 -3.768600 -17.645900 0.409100 -4.189900 -2.289900 0.547100 -2.062300 2.409600 -0.000000 -0.000000 0.000000 7.735700 41.375900 -34.558600 104.712400 -59.166100 72.705700 24.063200 -18.773700 15.057300 0.000000 0.000000 0.000000 -7.125000 0.000000 0.000000 -2.372100 13.573700 -1.750700 -0.000000 -0.000000 0.000000 -7.303200 -4.350000 47.800600 -113.962800 -57.715100 -80.593200 -20.633500 -0.949800 -2.006700 0.000000 0.000000 0.000000 7.125000 0.000000 -0.000000 4.587400 27.826200 1.921300
1.875399 15.771200 -46.162372 -1.575072 -6.980531 29.659719 0.000000 0.000000 0.000000 -8.255216 -14.904031 -77.855322 14.211284 19.176703 72.848612 1.242517 -10.935096 -20.220775 0.078376 -1.621463 -4.464220 0.000000 0.000000 0.000000 21.090146 -4.634778 9.410446 -0.525853 -4.590049 12.753120 0.492962 -12.667358 -3.006522 -3.654856 11.626774 -34.501325 1.870543 4.180690 18.046245 -1.729049 5.697356 0.975902 -4.345033 2.605948 -8.669793 -4.170126 -3.772512 -17.609311 0.528243 -4.196678 -2.371543 0.591176 -2.060209 2.379047 0.000000 0.000000 0.000000 7.477551 41.320426 -34.302879 104.572416 -59.182017 72.585444 24.098508 -18.389057 14.498377 0.000000 0.000000 0.000000 -7.125000 0.000000 0.000000 -2.311230 14.173664 -1.677724 0.000000 0.000000 0.000000 -7.243983 -4.102306 47.735380 -113.821838 -57.743090 -80.473956 -20.632724 -0.957050 -1.882903 0.000000 0.000000 0.000000 7.125000 0.000000 0.000000 4.592526 27.958056 1.909059
1.872397 15.777001 -46.047445 -1.575544 -6.772562 29.762337 0.000000 0.000000 0.000000 -8.348932 -15.004863 -77.548444 14.261869 19.191406 73.002625 1.249733 -10.940491 -20.276351 0.041652 -1.055526 -2.904739 0.000000 0.000000 0.000000 21.174891 -4.295256 8.606391 -0.645907 -5.090597 14.177541 0.452123 -12.516515 -1.051945 -4.141612 12.291149 -36.849549 1.908886 4.104780 18.099190 -1.724597 5.607013 0.935705 -4.347865 2.558197 -8.747086 -4.195452 -3.776424 -17.572721 0.647386 -4.203457 -2.453186 0.635252 -2.058118 2.348494 0.000000 0.000000 0.000000 7.219403 41.264952 -34.047159 104.432433 -59.197934 72.465188 24.133816 -18.004414 13.939454 0.000000 0.000000 0.000000 -7.125000 0.000000 0.000000 -2.250360 14.773627 -1.604747 0.000000 0.000000 0.000000 -7.184765 -3.854611 47.670160 -113.680877 -57.771080 -80.354712 -20.631949 -0.964301 -1.759107 0.000000 0.000000 0.000000 7.125000 0.000000 0.000000 4.597652 28.089913 1.896817
1.869411 15.782669 -45.932561 -1.573851 -6.564746 29.864562 0.000000 0.000000 0.000000 -8.443947 -15.107156 -77.240260 14.312025 19.205975 73.155324 1.258352 -10.945362 -20.342196 0.006135 -0.505028 -1.387835 0.000000 0.000000 0.000000 21.257200 -3.959793 7.798845 -0.768414 -5.593940 15.611573 0.411555 -12.368871 0.862092 -4.605576 12.925089 -39.089280 1.945505 4.029082 18.151784 -1.720358 5.516559 0.896410 -4.349825 2.510504 -8.823349 -4.219781 -3.780727 -17.538671 0.764765 -4.210751 -2.535057 0.678499 -2.056355 2.318256 0.000000 0.000000 0.000000 6.961289 41.203705 -33.791410 104.282338 -59.214897 72.336238 24.165243 -17.626976 13.396975 0.000000 0.000000 0.000000 -7.125000 0.000000 0.000000 -2.193249 15.356265 -1.535282 0.000000 0.000000 0.000000 -7.125688 -3.606900 47.602870 -113.533237 -57.800315 -80.229806 -20.632102 -0.972321 -1.638362 0.000000 0.000000 0.000000 7.125000 0.000000 0.000000 4.601949 28.218512 1.884591
1.866848 15.784659 -45.818881 -1.511835 -6.361195 29.955816 0.000000 0.000000 0.000000 -8.575163 -15.250175 -76.895714 14.350267 19.216800 73.271431 1.306037 -10.935616 -20.694128 0.004246 -0.384637 -1.056980 0.000000 0.000000 0.000000 21.271634 -3.737391 6.894027 -0.959286 -6.175120 17.313364 0.378506 -12.310328 1.646790 -4.434635 12.711218 -38.306673 1.934107 3.959310 18.194612 -1.722045 5.423046 0.882280 -4.327467 2.464438 -8.870932 -4.216341 -3.795936 -17.575362 0.833020 -4.232435 -2.623276 0.698665 -2.063706 2.296774 0.000000 0.000000 0.000000 6.704152 40.981640 -33.534880 103.850584 -59.260997 71.965084 24.088557 -17.450269 13.312567 0.000000 0.000000 0.000000 -7.125000 0.000000 0.000000 -2.240832 15.456253 -1.563609 0.000000 0.000000 0.000000 -7.070518 -3.358734 47.477927 -113.199549 -57.864219 -79.947174 -20.658136 -1.001795 -1.602650 0.000000 0.000000 0.000000 7.125000 0.000000 0.000000 4.583165 28.256383 1.872788
1.864285 15.786648 -45.705201 -1.449818 -6.157644 30.047070 0.000000 0.000000 0.000000 -8.706378 -15.393193 -76.551167 14.388509 19.227625 73.387539 1.353721 -10.925870 -21.046059 0.002358 -0.264247 -0.726125 0.000000 0.000000 0.000000 21.286067 -3.514988 5.989208 -1.150157 -6.756300 19.015155 0.345458 -12.251785 2.431487 -4.263694 12.497348 -37.524067 1.922708 3.889537 18.237440 -1.723731 5.329532 0.868151 -4.305109 2.418373 -8.918515 -4.212901 -3.811145 -17.612052 0.901275 -4.254119 -2.711495 0.718831 -2.071058 2.275293 0.000000 0.000000 0.000000 6.447016 40.759574 -33.278351 103.418830 -59.307096 71.593930 24.011871 -17.273561 13.228158 0.000000 0.000000 0.000000 -7.125000 0.000000 0.000000 -2.288415 15.556242 -1.591936 0.000000 0.000000 0.000000 -7.015347 -3.110567 47.352984 -112.865861 -57.928124 -79.664543 -20.684170 -1.031269 -1.566937 0.000000 0.000000 0.000000 7.125000 0.000000 0.000000 4.564382 28.294254 1.860985
1.861664 15.788692 -45.591589 -1.388706 -5.956322 30.136988 0.000000 0.000000 0.000000 -8.835900 -15.534076 -76.203666 14.426122 19.238261 73.501733 1.402239 -10.924141 -21.403832 0.000644 -0.156136 -0.429014 0.000000 0.000000 0.000000 21.300136 -3.293434 5.092388 -1.342305 -7.331338 20.702810 0.311790 -12.206263 3.228626 -4.107017 12.301430 -36.806984 1.910069 3.820456 18.282168 -1.724816 5.236729 0.854191 -4.281692 2.372677 -8.967068 -4.211002 -3.826025 -17.647065 0.970561 -4.275155 -2.799092 0.739673 -2.078057 2.253790 0.000000 0.000000 0.000000 6.191587 40.532632 -33.026348 102.989556 -59.352650 71.224873 23.933902 -17.099943 13.147087 0.000000 0.000000 0.000000 -7.125000 0.000000 0.000000 -2.337096 15.652743 -1.621170 0.000000 0.000000 0.000000 -6.961502 -2.862393 47.228658 -112.522336 -57.993530 -79.373509 -20.710144 -1.062108 -1.525256 0.000000 0.000000 0.000000 7.125000 0.000000 0.000000 4.545876 28.338491 1.848619
1.858258 15.791457 -45.478887 -1.339741 -5.784943 30.208952 0.000000 0.000000 0.000000 -8.942666 -15.646272 -75.816494 14.455292 19.246354 73.590222 1.461962 -11.030065 -21.840037 0.001285 -0.212925 -0.585050 0.000000 0.000000 0.000000 21.309308 -3.083273 4.302969 -1.551589 -7.823894 22.200645 0.269805 -12.335590 4.192830 -4.141886 12.346584 -36.969798 1.880764 3.760665 18.352413 -1.717836 5.153468 0.842523 -4.244057 2.331939 -9.028646 -4.229785 -3.836479 -17.659542 1.053688 -4.287498 -2.878341 0.769585 -2.080316 2.232005 0.000000 0.000000 0.000000 5.959102 40.240187 -32.835139 102.593582 -59.390892 70.883968 23.838702 -16.967817 13.110835 0.000000 0.000000 0.000000 -7.125000 0.000000 0.000000 -2.400529 15.702417 -1.662582 0.000000 0.000000 0.000000 -6.925452 -2.614126 47.112617 -112.046708 -58.079084 -78.969644 -20.735301 -1.111276 -1.403415 0.000000 0.000000 0.000000 7.125000 0.000000 0.000000 4.531106 28.468223 1.828688
